# xmcd
#
# Track frame offsets: 
#        150
#        23940
#        47244
#        74389
#        99700
#        118171
#        139032
#        155868
#        177455
#        203929
#
# Disc length: 3307 seconds
#
# Revision: 1
# Processed by: cddbd v1.5.2PL0 Copyright (c) Steve Scherf et al.
# Submitted via: ExactAudioCopy v0.99pb5
#
DISCID=9a0ce90a
DTITLE=Son Boricua - Fabulosos 70's
DYEAR=2004
DGENRE=Salsa
TTITLE0=Lloraras
TTITLE1=Usted Abuso
TTITLE2=Vamanos Pa'l Monte
TTITLE3=Para Que Gocen Los Pollos
TTITLE4=Que Te Pedi
TTITLE5=El Dia De Suerte
TTITLE6=Mi Negrita Me Espera
TTITLE7=Canto Al Amor
TTITLE8=Campanero 2004
TTITLE9=Los Tres Pianos
EXTD=YEAR: 2004
EXTT0=
EXTT1=
EXTT2=
EXTT3=
EXTT4=
EXTT5=
EXTT6=
EXTT7=
EXTT8=
EXTT9=
PLAYORDER=
